<svg xmlns="http://www.w3.org/2000/svg" width="17.263" height="17.263" viewBox="0 0 17.263 17.263">
  <g id="Group_3" data-name="Group 3" transform="translate(-1619.946 -252.946)">
    <g id="Group_2" data-name="Group 2" transform="translate(543.5 -73.5)">
      <g id="Path_2" data-name="Path 2" transform="translate(1076.446 326.446)" fill="#fff">
        <path d="M 8.631439208984375 17.11287879943848 C 3.954759120941162 17.11287879943848 0.1499992161989212 13.30811882019043 0.1499992161989212 8.631439208984375 C 0.1499992161989212 3.954759120941162 3.954759120941162 0.1499992161989212 8.631439208984375 0.1499992161989212 C 13.30811882019043 0.1499992161989212 17.11287879943848 3.954759120941162 17.11287879943848 8.631439208984375 C 17.11287879943848 13.30811882019043 13.30811882019043 17.11287879943848 8.631439208984375 17.11287879943848 Z" stroke="none"/>
        <path d="M 8.631439208984375 0.2999992370605469 C 4.037468910217285 0.2999992370605469 0.2999992370605469 4.037468910217285 0.2999992370605469 8.631439208984375 C 0.2999992370605469 13.22540855407715 4.037468910217285 16.9628791809082 8.631439208984375 16.9628791809082 C 13.22540855407715 16.9628791809082 16.9628791809082 13.22540855407715 16.9628791809082 8.631439208984375 C 16.9628791809082 4.037468910217285 13.22540855407715 0.2999992370605469 8.631439208984375 0.2999992370605469 M 8.631439208984375 0 C 13.3984489440918 0 17.26287841796875 3.864429473876953 17.26287841796875 8.631439208984375 C 17.26287841796875 13.3984489440918 13.3984489440918 17.26287841796875 8.631439208984375 17.26287841796875 C 3.864429473876953 17.26287841796875 0 13.3984489440918 0 8.631439208984375 C 0 3.864429473876953 3.864429473876953 0 8.631439208984375 0 Z" stroke="none" fill="#bdbdbd"/>
      </g>
      <g id="Group_1" data-name="Group 1" transform="translate(1077.165 327.165)">
        <ellipse id="Ellipse_1" data-name="Ellipse 1" cx="7.912" cy="7.912" rx="7.912" ry="7.912" transform="translate(0)" fill="#bdbdbd"/>
        <g id="camera" transform="translate(3.393 3.809)">
          <g id="camera-alt">
            <ellipse id="Ellipse_2" data-name="Ellipse 2" cx="1.433" cy="1.433" rx="1.433" ry="1.433" transform="translate(3.044 3.044)" fill="#fff"/>
            <path id="Path_1" data-name="Path 1" d="M3.134,25.5l-.806.9H.9a.9.9,0,0,0-.9.9v5.373a.9.9,0,0,0,.9.9H8.059a.9.9,0,0,0,.9-.9V27.291a.9.9,0,0,0-.9-.9H6.626l-.806-.9Zm1.343,6.716a2.239,2.239,0,1,1,2.239-2.239A2.217,2.217,0,0,1,4.477,32.216Z" transform="translate(0 -25.5)" fill="#fff"/>
          </g>
        </g>
      </g>
    </g>
  </g>
</svg>
